<svg width="47" height="74" viewBox="0 0 47 74" fill="none" xmlns="http://www.w3.org/2000/svg">
<path d="M12.532 65.9356C13.6027 64.784 14.8613 63.4834 15.6128 62.8719C15.4015 62.8537 15.068 62.8127 14.7059 62.7581C13.9226 63.4717 12.9234 64.5142 12.0282 65.4703C10.8938 66.6941 9.95894 67.7632 9.95894 67.7684C9.94463 67.7775 9.93943 67.7964 9.92448 67.8094C9.18337 68.0135 7.92544 68.3592 7.08877 68.5874C5.84839 68.9312 4.73543 68.8467 4.73543 69.6578C4.73543 69.6578 3.45149 70.3461 3.75184 71.3723C3.75184 71.3723 6.32751 69.3153 8.53133 68.9669C8.53133 68.9669 7.18498 69.8424 7.3072 71.0292C7.3072 71.0292 9.12162 68.315 11.2403 69.9607C11.2403 69.9607 10.2963 68.6784 10.6896 67.9725C11.0283 67.5884 11.7298 66.7994 12.532 65.9356ZM8.45202 33.8881C8.34085 33.9375 8.22513 33.9557 8.10617 33.9557C7.73041 33.9557 7.37806 33.7282 7.22529 33.3558C7.21164 33.3253 7.19409 33.2889 7.18759 33.2505L6.90804 33.3435C7.14338 34.0285 7.85068 34.4035 8.48907 34.1825C8.64965 34.1247 8.79332 34.0396 8.90448 33.9304C9.25554 33.6002 9.39791 33.0634 9.22303 32.5532L8.58204 32.7722C8.62234 32.8664 8.64965 32.9685 8.64965 33.0777C8.64965 33.1725 8.63339 33.2583 8.59569 33.3402L8.88823 33.5183C8.83752 33.595 8.77512 33.6717 8.70035 33.7354C8.63339 33.7991 8.54758 33.8498 8.45202 33.8881ZM34.4083 31.8096L21.7399 34.8988V34.8851L21.7438 34.8988L46.4884 24.1944L26.0956 26.6914L37.0113 18.72L25.3142 23.2858L27.0805 19.7417L18.7131 25.7672L18.6422 25.6398L30.5052 0L11.2143 22.8269L11.094 10.3814L4.01577 27.0164L3.64782 22.1126L0.160716 34.8734L0.167217 34.8695V34.8734C0.167217 34.8734 0.637235 34.5257 1.26913 34.3353C1.31983 34.3216 1.37119 34.3086 1.4219 34.2943C1.4284 34.2943 1.4349 34.2891 1.44205 34.2891C1.49341 34.2781 1.54412 34.2657 1.59482 34.2579C1.60133 34.2579 1.60913 34.2521 1.61888 34.2521C1.67088 34.243 1.72094 34.2358 1.77945 34.2326V34.2267C1.83406 34.2222 1.88737 34.2196 1.93872 34.215H1.97188C2.02324 34.2105 2.07849 34.2105 2.13635 34.215C2.1396 34.215 2.14285 34.215 2.15521 34.2196C2.20331 34.2196 2.25077 34.2222 2.30213 34.2326C2.31188 34.2358 2.31838 34.2358 2.32943 34.2358C2.38469 34.243 2.43475 34.2521 2.4861 34.2657C2.49976 34.2657 2.51341 34.2703 2.51991 34.2735C2.57322 34.2872 2.62782 34.3015 2.68633 34.3216C3.87926 34.7532 4.89405 34.3216 4.89405 34.3216C4.89405 34.3216 6.01742 35.0424 6.01742 35.6475H6.01482V35.6501C6.01482 35.6501 4.5365 35.7365 4.5365 35.082C4.5365 35.082 2.64603 34.4107 0.000793457 35.3908L5.57925 37.789C5.576 37.763 5.28151 36.7251 5.60396 36.3637C5.70602 36.2389 5.88545 36.1954 6.16499 36.2903C6.26705 36.3267 6.34116 36.3176 6.38732 36.2727C6.82093 35.8256 4.71723 31.9416 4.71723 31.9416C4.71723 31.9416 2.82805 31.7583 1.19372 33.4676C1.08515 33.5807 0.972033 33.7022 0.867368 33.8355V33.8296V33.8355C1.03444 33.5443 1.56427 32.7 2.4484 31.9689C2.97822 31.5243 3.64132 31.1259 4.43119 30.901C4.64767 30.3817 4.37268 30.7197 4.81929 30.4467C4.82254 30.4467 4.82254 30.4422 4.82254 30.4422C5.03252 29.0728 5.80808 25.5456 8.48322 22.5286C8.66265 22.3284 8.84728 22.1263 9.0436 21.9346C9.0436 21.9346 8.35841 23.2234 8.35841 24.1196C8.37791 24.0969 9.05466 23.0817 9.99014 22.1529V22.149C9.99014 22.149 9.97909 22.164 9.96544 22.1893C9.79186 22.5611 8.51638 25.283 8.64965 26.0779C8.65355 26.085 8.65615 26.0896 8.65615 26.0974L11.2344 23.7355C11.2344 23.7355 11.2273 23.7401 11.2234 23.7427C11.1486 23.8447 8.80242 27.0164 8.57099 28.1037V28.1109L12.4748 25.3233L12.4709 25.3279C12.4579 25.3506 11.9794 26.0181 11.7779 26.384C11.6349 26.6459 11.6141 26.7343 11.6141 26.7616L11.6206 26.7824L13.7223 25.8816C13.7223 25.8816 13.6313 25.9908 13.4844 26.15L12.7023 26.9449L12.5093 27.149L11.0875 28.5853L11.0608 28.6185L9.97909 29.7175L9.28544 30.424C9.28544 30.424 8.71791 31.0148 8.64965 31.3209C8.58204 31.6218 8.90188 31.8077 8.90188 31.8077H8.89798C9.18727 31.9689 9.42066 32.2184 9.55783 32.5168C9.63324 32.6974 9.67615 32.8937 9.67615 33.105C9.67615 33.5183 9.50647 33.8933 9.22303 34.1643C8.94544 34.4373 8.55408 34.6076 8.12307 34.6076C7.73041 34.6076 7.38196 34.4653 7.10957 34.2378C7.15703 34.3015 7.92544 35.2673 9.33615 34.5166L11.0797 33.246L11.1551 33.1868L12.9572 31.8694C13.3823 32.3712 13.7841 32.9756 14.1475 33.6613C13.0768 34.6784 11.2507 36.443 9.42716 38.3727C8.34085 39.5198 7.2565 40.7326 6.33076 41.8777L6.98086 38.8237L7.03481 38.5715C7.03481 38.5715 7.03221 38.5715 7.03221 38.5761C7.02506 38.5793 7.02116 38.5793 7.01596 38.5839C7.01596 38.5865 7.00751 38.591 7.00751 38.591C7.00101 38.5943 6.99386 38.5943 6.98996 38.6047C6.98671 38.6047 6.98086 38.6073 6.98086 38.6144C6.9737 38.6183 6.96265 38.6229 6.9568 38.6274C6.9529 38.63 6.9503 38.6398 6.93925 38.6417C6.93275 38.6456 6.923 38.6554 6.9139 38.658C6.90804 38.6671 6.90219 38.671 6.89179 38.6781C6.88464 38.6853 6.87944 38.6931 6.86449 38.6963C6.85474 38.7067 6.84824 38.7165 6.83718 38.7217C6.82808 38.7295 6.81703 38.7418 6.80598 38.7438C6.79753 38.7574 6.78648 38.7691 6.77738 38.773C6.76242 38.7828 6.75267 38.7951 6.73902 38.8042C6.72862 38.8114 6.71887 38.8237 6.70977 38.8341C6.69546 38.8458 6.67791 38.8549 6.66816 38.8712C6.65061 38.8777 6.64411 38.8894 6.6272 38.8965C6.6168 38.9134 6.5999 38.9257 6.58235 38.9407C6.57325 38.9517 6.55504 38.9641 6.54529 38.9771C6.52774 38.9914 6.50759 39.0076 6.49393 39.0258C6.48028 39.0382 6.47118 39.0499 6.45298 39.059C6.43998 39.0791 6.42047 39.0986 6.39577 39.1168C6.38212 39.1279 6.37172 39.137 6.36197 39.15C6.35091 39.161 6.33791 39.1727 6.32361 39.1838C6.32361 39.1883 6.32101 39.1883 6.32101 39.1883C6.30151 39.2065 6.28005 39.2299 6.2599 39.252C6.24235 39.2631 6.2287 39.2813 6.21634 39.2975C6.19164 39.3157 6.17409 39.3365 6.15394 39.356C6.13703 39.3723 6.11948 39.3924 6.10323 39.4067C6.08958 39.4275 6.07202 39.4431 6.06292 39.4561C6.05577 39.4613 6.04667 39.471 6.03887 39.4788C6.03887 39.4814 6.03237 39.4866 6.02457 39.4938C6.01221 39.5068 6.00116 39.5178 5.98751 39.5321C5.97061 39.5523 5.95371 39.5685 5.9368 39.5887C5.9329 39.5958 5.9303 39.6017 5.92315 39.603C5.916 39.6108 5.91015 39.614 5.903 39.6218C5.8939 39.6381 5.8822 39.6498 5.86854 39.6615C5.84839 39.6907 5.82824 39.7128 5.80093 39.7362C5.78338 39.7616 5.76258 39.7798 5.74633 39.8058C5.72617 39.8311 5.69887 39.8584 5.67807 39.8818C5.65791 39.9071 5.63906 39.9273 5.61956 39.9526C5.59355 39.9812 5.5734 40.0111 5.5461 40.0397C5.52854 40.0625 5.50774 40.0859 5.48564 40.1132C5.46419 40.1444 5.44013 40.1717 5.41283 40.2081C5.39267 40.2263 5.37577 40.2542 5.35432 40.277C5.32897 40.3153 5.30101 40.3478 5.27371 40.3848C5.2529 40.4121 5.236 40.4303 5.22235 40.4544C5.1892 40.4986 5.15409 40.5421 5.12029 40.5857C5.10988 40.6032 5.09233 40.6234 5.08323 40.6396C5.03577 40.7053 4.98507 40.7716 4.93956 40.8405L4.93371 40.8482C4.8882 40.9145 4.84074 40.9802 4.79719 41.0471C4.78614 41.0666 4.77183 41.0894 4.75753 41.1102C4.72633 41.1609 4.68992 41.2122 4.65547 41.2662C4.63727 41.2915 4.62426 41.3168 4.60411 41.3422C4.57356 41.3935 4.54235 41.439 4.50855 41.4897C4.49099 41.5209 4.47474 41.5482 4.45849 41.5762C4.43119 41.6275 4.39673 41.6795 4.36358 41.7302C4.34927 41.7614 4.32912 41.7913 4.31287 41.8238C4.28166 41.8751 4.25436 41.9284 4.2199 41.9798C4.20235 42.0071 4.18285 42.0435 4.1653 42.0747C4.13409 42.1345 4.10354 42.1858 4.07233 42.2404C4.05803 42.271 4.03918 42.3054 4.02293 42.3405C3.87926 42.6044 3.74013 42.8773 3.59711 43.1724V43.1776L2.87941 43.2978C3.02308 42.9287 3.16545 42.5933 3.31887 42.2755L2.1487 43.9224L3.31887 43.808C2.31838 46.1068 1.58442 49.1154 1.58442 53.3997L2.53681 52.7973C3.37673 57.5795 7.3202 59.6813 7.3202 59.6813L7.3137 59.6514C9.48567 61.0728 12.1303 62.0672 15.0446 62.4611C15.449 62.5124 15.7766 62.5423 15.8507 62.5495C15.8533 62.5495 15.8533 62.5495 15.8533 62.5475C15.906 62.554 15.9528 62.5631 16.0035 62.5631C17.5819 62.7009 19.1149 62.6444 20.5808 62.4299C20.5769 62.4858 20.5737 62.5423 20.5737 62.5989C20.5737 63.5458 21.1003 64.3251 21.7712 64.3895C20.3936 66.7325 19.2774 69.8443 19.2741 69.8586C19.2208 70.0016 19.111 70.2668 18.9998 70.3461C18.6604 70.4228 18.6331 70.4397 18.2574 70.5567L18.2632 70.5521C18.1365 70.4286 17.0482 70.2252 15.9398 70.6411C15.9424 70.6463 15.9424 70.6463 15.9489 70.6522C15.3216 70.9271 14.7111 71.4295 14.2879 72.2621C14.7384 71.8981 15.579 71.3067 16.2636 71.3886C15.4529 71.85 14.0526 72.7313 13.8927 74C13.8927 74 18.7541 70.5898 21.151 71.2189C21.151 71.2189 20.8019 71.6154 21.6275 73.0881L22.0045 71.7181C22.4362 70.389 20.7713 70.1933 20.0712 70.1647C20.0744 70.155 20.0744 70.1505 20.0744 70.1485C20.0744 70.1485 20.1518 69.9353 20.2876 69.5831C20.7004 68.5185 21.6613 66.1651 22.7131 64.485C22.732 64.4499 22.7456 64.4122 22.7567 64.3778L22.5597 64.1067C22.5617 64.1067 22.7021 63.9533 22.7775 63.8403C22.9166 63.6199 23.1103 63.2462 23.1136 62.7516C23.1136 62.3636 23.0187 61.8742 22.7424 61.2659L23.3652 60.9773C23.399 61.0566 23.4321 61.13 23.4653 61.2009C23.4744 61.2282 23.4835 61.2522 23.4913 61.273C23.5108 61.3237 23.531 61.3751 23.5479 61.4258C23.5583 61.4485 23.5674 61.4771 23.5765 61.5024C23.5934 61.5577 23.609 61.609 23.6272 61.6597C23.6311 61.6753 23.6408 61.6961 23.6447 61.7143L27.2027 60.64L26.4141 59.9907H26.4089L26.3738 59.9556L26.3556 59.942L12.8987 47.6894C12.9026 47.6894 12.9065 47.6959 12.9065 47.6959L12.9026 47.6894C16.6439 49.5086 21.0079 51.6235 28.4106 55.0525C35.7033 58.4133 40.3209 60.3709 42.7029 61.3465C42.723 61.3595 42.7451 61.3679 42.7614 61.3751H42.7653C43.1111 61.5174 43.4082 61.6363 43.6585 61.7384C44.1682 61.9379 44.646 62.1225 44.672 62.1342C44.7123 62.1114 44.7604 62.0991 44.8014 62.0776L17.5949 43.4226L34.4083 31.8096ZM15.579 37.5596L11.5231 40.6442L14.4342 34.243V34.2378C14.8971 35.2192 15.2858 36.341 15.5829 37.5596H15.579ZM30.0618 59.6287L30.1632 60.1155H30.1606L34.9011 62.9109L36.1005 63.6076L35.4446 61.9204C39.3555 63.0733 42.5404 63.1377 44.6584 62.14C44.6584 62.14 44.6558 62.14 44.6558 62.1413C40.9691 63.2306 31.8275 60.1512 30.0618 59.6287Z" fill="#DC0D15"/>
</svg>
